This is my First Torrent. Be gantle with me, I'm a virgin >:D

Starring: Bridgette Kerkove, Alec Metro, Teanna Kai, Halli Aston, Amanda Rain,
          Sabrina Johnson, Mark Davis, Anastasia Blue, Evan Stone

    * Scene 1. Bridgette Kerkove, Alec Metro
    * Scene 2. Teanna Kai, Halli Aston
    * Scene 3. Amanda Rain, Sabrina Johnson, Mark Davis
    * Scene 4. Anastasia Blue, Alec Metro
    * Scene 5. Bridgette Kerkove, Evan Stone

DESCRIPTION
Sin City Films and Michael Raven present a shocking vision of a marriage made in
heaven and the dark evil that droveit straight to hell...
Alec Metro stars as a scientist whose twisted experiments turn him into
a sexually obsessed madman who uses his innocent wife Bridgett Kerkove as a tool
for his sick fantasies form blazing three ways to anal violations, Raven`s vision
of the primal man exposes the deep sexual primal urge in all of us.



Screenshots: http://bayimg.com/eaDNJAADE



General
Format                           : AVI
Format/Info                      : Audio Video Interleave
File size                        : 768 MiB
Duration                         : 1h 20mn
Overall bit rate                 : 1 341 Kbps
Movie name                       : Primal Urge (2000)

Video
Format                           : MPEG-4 Visual
Format profile                   : Simple@L3
Format settings, Matrix          : Default (H.263)
Codec ID                         : XVID
Codec ID/Hint                    : XviD
Duration                         : 1h 20mn
Bit rate                         : 1 200 Kbps
Width                            : 640 pixels
Height                           : 480 pixels
Display aspect ratio             : 4:3
Frame rate                       : 29.970 fps
Color space                      : YUV
Chroma subsampling               : 4:2:0
Bit depth                        : 8 bits
Scan type                        : Progressive
Bits/(Pixel*Frame)               : 0.130
Stream size                      : 687 MiB (89%)
Writing library                  : Magic0432

Audio
ID                               : 1
Format                           : MPEG Audio
Format version                   : Version 1
Format profile                   : Layer 3
Mode                             : Joint stereo
Mode extension                   : MS Stereo
Codec ID                         : 55
Codec ID/Hint                    : MP3
Duration                         : 1h 20mn
Bit rate mode                    : Constant
Bit rate                         : 128 Kbps
Channel(s)                       : 2 channels
Sampling rate                    : 44.1 KHz
Stream size                      : 73.3 MiB (10%)
Alignment                        : Aligned on interleaves
Interleave, duration             : 26 ms (0.78 video frame)


Look at my torrents - You know you wanna.